<svg id="visual" viewBox="0 0 900 300" width="900" height="300" xmlns="http://www.w3.org/2000/svg" xmlns:xlink="http://www.w3.org/1999/xlink" version="1.1"><rect x="0" y="0" width="900" height="300" fill="#001220"></rect><path d="M0 137L25 138C50 139 100 141 150 141.8C200 142.7 250 142.3 300 139.8C350 137.3 400 132.7 450 138.3C500 144 550 160 600 165.8C650 171.7 700 167.3 750 167.7C800 168 850 173 875 175.5L900 178L900 301L875 301C850 301 800 301 750 301C700 301 650 301 600 301C550 301 500 301 450 301C400 301 350 301 300 301C250 301 200 301 150 301C100 301 50 301 25 301L0 301Z" fill="#548cff"></path><path d="M0 151L25 151.5C50 152 100 153 150 163.3C200 173.7 250 193.3 300 192C350 190.7 400 168.3 450 162.3C500 156.3 550 166.7 600 170.8C650 175 700 173 750 167.8C800 162.7 850 154.3 875 150.2L900 146L900 301L875 301C850 301 800 301 750 301C700 301 650 301 600 301C550 301 500 301 450 301C400 301 350 301 300 301C250 301 200 301 150 301C100 301 50 301 25 301L0 301Z" fill="#4b72ff"></path><path d="M0 225L25 220.8C50 216.7 100 208.3 150 203C200 197.7 250 195.3 300 197C350 198.7 400 204.3 450 211.7C500 219 550 228 600 231.5C650 235 700 233 750 229C800 225 850 219 875 216L900 213L900 301L875 301C850 301 800 301 750 301C700 301 650 301 600 301C550 301 500 301 450 301C400 301 350 301 300 301C250 301 200 301 150 301C100 301 50 301 25 301L0 301Z" fill="#5851ff"></path><path d="M0 273L25 268C50 263 100 253 150 252C200 251 250 259 300 262.5C350 266 400 265 450 261.8C500 258.7 550 253.3 600 255.2C650 257 700 266 750 269.8C800 273.7 850 272.3 875 271.7L900 271L900 301L875 301C850 301 800 301 750 301C700 301 650 301 600 301C550 301 500 301 450 301C400 301 350 301 300 301C250 301 200 301 150 301C100 301 50 301 25 301L0 301Z" fill="#7900ff"></path></svg>