<svg id="visual" viewBox="0 0 1920 1080" width="1920" height="1080" xmlns="http://www.w3.org/2000/svg" xmlns:xlink="http://www.w3.org/1999/xlink" version="1.1"><path d="M0 767L45.7 764.2C91.3 761.3 182.7 755.7 274.2 775.7C365.7 795.7 457.3 841.3 548.8 856.2C640.3 871 731.7 855 823 842.2C914.3 829.3 1005.7 819.7 1097 817.3C1188.3 815 1279.7 820 1371.2 814C1462.7 808 1554.3 791 1645.8 801.3C1737.3 811.7 1828.7 849.3 1874.3 868.2L1920 887L1920 1081L1874.3 1081C1828.7 1081 1737.3 1081 1645.8 1081C1554.3 1081 1462.7 1081 1371.2 1081C1279.7 1081 1188.3 1081 1097 1081C1005.7 1081 914.3 1081 823 1081C731.7 1081 640.3 1081 548.8 1081C457.3 1081 365.7 1081 274.2 1081C182.7 1081 91.3 1081 45.7 1081L0 1081Z" fill="#47b5ff"></path><path d="M0 917L45.7 904.2C91.3 891.3 182.7 865.7 274.2 860C365.7 854.3 457.3 868.7 548.8 884.5C640.3 900.3 731.7 917.7 823 925.5C914.3 933.3 1005.7 931.7 1097 926C1188.3 920.3 1279.7 910.7 1371.2 898.7C1462.7 886.7 1554.3 872.3 1645.8 866.3C1737.3 860.3 1828.7 862.7 1874.3 863.8L1920 865L1920 1081L1874.3 1081C1828.7 1081 1737.3 1081 1645.8 1081C1554.3 1081 1462.7 1081 1371.2 1081C1279.7 1081 1188.3 1081 1097 1081C1005.7 1081 914.3 1081 823 1081C731.7 1081 640.3 1081 548.8 1081C457.3 1081 365.7 1081 274.2 1081C182.7 1081 91.3 1081 45.7 1081L0 1081Z" fill="#0ccdff"></path><path d="M0 983L45.7 974.5C91.3 966 182.7 949 274.2 944.3C365.7 939.7 457.3 947.3 548.8 957C640.3 966.7 731.7 978.3 823 979.2C914.3 980 1005.7 970 1097 974.3C1188.3 978.7 1279.7 997.3 1371.2 998C1462.7 998.7 1554.3 981.3 1645.8 974C1737.3 966.7 1828.7 969.3 1874.3 970.7L1920 972L1920 1081L1874.3 1081C1828.7 1081 1737.3 1081 1645.8 1081C1554.3 1081 1462.7 1081 1371.2 1081C1279.7 1081 1188.3 1081 1097 1081C1005.7 1081 914.3 1081 823 1081C731.7 1081 640.3 1081 548.8 1081C457.3 1081 365.7 1081 274.2 1081C182.7 1081 91.3 1081 45.7 1081L0 1081Z" fill="#31e1f7"></path></svg>